# xmcd
#
# Track frame offsets: 
#        150
#        9724
#        22517
#        35937
#        47167
#        64235
#        81990
#        92253
#        104774
#        115966
#
# Disc length: 1715 seconds
#
# Revision: 0
# Processed by: cddbd v1.5.1PL0 Copyright (c) Steve Scherf et al.
# Submitted via: ExactAudioCopy v0.95a5
#
DISCID=7e06b10a
DTITLE=Vince Combs and ShadeTree B.G. - Kentucky Memories
DYEAR=2001
DGENRE=Bluegrass
TTITLE0=Kentucky Memories
TTITLE1=I Hear A Voice Calling
TTITLE2=Old Old House
TTITLE3=You Won't Be Satisfied That Way
TTITLE4=Sweet Heart You Done Me Wrong
TTITLE5=Louisanna Love
TTITLE6=Carolina Mountain Home
TTITLE7=Darling Cora
TTITLE8=My Old Kentucky And You
TTITLE9=Little Cabin Home On the Hill
EXTD=
EXTT0=
EXTT1=
EXTT2=
EXTT3=
EXTT4=
EXTT5=
EXTT6=
EXTT7=
EXTT8=
EXTT9=
PLAYORDER=
